<svg width="15" height="15" viewBox="0 0 15 15" fill="none" xmlns="http://www.w3.org/2000/svg">
<g clip-path="url(#clip0_68_39)">
<path d="M10.9375 4.0625H10.9438M4.375 1.25H10.625C12.3509 1.25 13.75 2.64911 13.75 4.375V10.625C13.75 12.3509 12.3509 13.75 10.625 13.75H4.375C2.64911 13.75 1.25 12.3509 1.25 10.625V4.375C1.25 2.64911 2.64911 1.25 4.375 1.25ZM10 7.10625C10.0771 7.6264 9.98829 8.15764 9.7461 8.62438C9.50391 9.09113 9.12072 9.46963 8.65102 9.70605C8.18132 9.94246 7.64903 10.0247 7.12987 9.94121C6.6107 9.85767 6.1311 9.61255 5.75927 9.24073C5.38745 8.8689 5.14233 8.3893 5.05879 7.87013C4.97525 7.35097 5.05754 6.81868 5.29395 6.34898C5.53037 5.87928 5.90887 5.49609 6.37562 5.2539C6.84236 5.01171 7.3736 4.92287 7.89375 5C8.42433 5.07868 8.91553 5.32591 9.29481 5.70519C9.67409 6.08447 9.92132 6.57567 10 7.10625Z" stroke="#F5F5F5" stroke-linecap="round" stroke-linejoin="round"/>
</g>
<defs>
<clipPath id="clip0_68_39">
<rect width="15" height="15" fill="white"/>
</clipPath>
</defs>
</svg>
