<svg width="46" height="40" viewBox="0 0 46 40" fill="none" xmlns="http://www.w3.org/2000/svg">
<g clip-path="url(#clip0_59_183)">
<path d="M45.7677 10.7692L43.096 11.3187L28.4596 3.40659L14.8687 11.3187V23.2967L26.9495 29.5604C26.9495 29.5604 27.8788 29.5604 28.4596 28.4615C29.0404 27.3626 27.5303 26.4835 27.5303 26.4835L18.3535 21.5385V11.8681H21.1414V19.2308C21.1414 19.2308 29.9697 22.8571 30.6667 24.1758C31.3636 25.4945 30.6667 30.6593 30.6667 30.6593L23.1162 33.956L27.5303 36.7033L40.7727 29.1209V18.2418L28.4596 10.7692L26.601 13.5165C26.601 13.5165 36.3586 18.2418 37.2879 19.8901C38.2172 21.5385 37.6364 27.6923 37.6364 27.6923L34.1078 29.4657C34.3903 28.1912 35.3401 23.4171 34.0354 22.0879C32.5253 20.5494 24.2778 16.8132 24.2778 16.8132C24.2778 16.8132 22.7677 11.7582 23.8131 9.8901C24.8586 8.02197 29.6212 8.02197 29.6212 8.02197L42.8636 13.6264V21.4286C42.8636 21.4286 42.2828 26.9231 44.0253 28.3516L45.7677 29.5604V10.7692Z" fill="#E0E0E0"/>
<path d="M45.7677 10.7692L27.935 0.472046L10.5707 9.89011V11.7582H13.1263V12.5275V13.6264V14.6154V15.8242V16.8132V18.022V19.1209V20.3297V21.4286V22.5275V23.6264V24.5055H10.5707V27.1429V29.7802L19.1667 34.6703L27.7626 39.5604L45.7677 29.5604L44.0253 28.3516C42.2828 26.9231 42.8636 21.4286 42.8636 21.4286V13.6264L29.6212 8.02197C29.6212 8.02197 24.8586 8.02197 23.8131 9.89011C22.7677 11.7582 24.2778 16.8132 24.2778 16.8132C24.2778 16.8132 32.5253 20.5494 34.0354 22.0879C35.3401 23.4171 34.3903 28.1912 34.1078 29.4657L37.6364 27.6923C37.6364 27.6923 38.2172 21.5385 37.2879 19.8901C36.3586 18.2418 26.601 13.5165 26.601 13.5165L28.4596 10.7692L40.7727 18.2418V29.1209L27.5303 36.7033L23.1162 33.956L30.6667 30.6593C30.6667 30.6593 31.3636 25.4945 30.6667 24.1758C29.9697 22.8571 21.1414 19.2308 21.1414 19.2308V11.8681H18.3535V21.5385L27.5303 26.4835C27.5303 26.4835 29.0404 27.3626 28.4596 28.4615C27.8788 29.5604 26.9495 29.5604 26.9495 29.5604L14.8687 23.2967V11.3187L28.4596 3.40659L43.096 11.3187L45.7677 10.7692Z" fill="#141414"/>
<path d="M27.741 0.577305L27.935 0.472046M27.935 0.472046L45.7677 10.7692M27.935 0.472046L27.7924 0.549446M27.935 0.472046L10.5707 9.89011V11.7582H13.1263V12.5275M45.7677 10.7692L43.096 11.3187L28.4596 3.40659L14.8687 11.3187V23.2967L26.9495 29.5604C26.9495 29.5604 27.8788 29.5604 28.4596 28.4615C29.0404 27.3626 27.5303 26.4835 27.5303 26.4835L18.3535 21.5385V11.8681H21.1414V19.2308C21.1414 19.2308 29.9697 22.8571 30.6667 24.1758C31.3636 25.4945 30.6667 30.6593 30.6667 30.6593L23.1162 33.956L27.5303 36.7033L40.7727 29.1209V18.2418L28.4596 10.7692L26.601 13.5165C26.601 13.5165 36.3586 18.2418 37.2879 19.8901C38.2172 21.5385 37.6364 27.6923 37.6364 27.6923L34.1078 29.4657M45.7677 10.7692V29.5604M13.1263 12.5275H9.9899M13.1263 12.5275V13.6264M34.1078 29.4657L33.6869 29.5604M34.1078 29.4657C34.3903 28.1912 35.3401 23.4171 34.0353 22.0879C32.5252 20.5494 24.2778 16.8132 24.2778 16.8132C24.2778 16.8132 22.7677 11.7582 23.8131 9.89011C24.8586 8.02197 29.6212 8.02197 29.6212 8.02197L42.8636 13.6264V21.4286C42.8636 21.4286 42.2828 26.9231 44.0252 28.3516L45.7677 29.5604M34.1078 29.4657C34.0632 29.6664 33.803 29.7802 33.803 29.7802M45.7677 29.5604L27.7626 39.5604L19.1667 34.6703L10.5707 29.7802V27.1429V24.5055H13.1263V23.6264M13.1263 23.6264V22.5275M13.1263 23.6264H3.94949M13.1263 13.6264H7.31818M13.1263 13.6264V14.6154M13.1263 14.6154H3.0202M13.1263 14.6154V15.8242M13.1263 15.8242H1.62626M13.1263 15.8242V16.8132M13.1263 16.8132H1.16162M13.1263 16.8132V18.022M13.1263 18.022H2.20707M13.1263 18.022V19.1209M13.1263 19.1209H1.62626M13.1263 19.1209V20.3297M13.1263 20.3297H3.0202M13.1263 20.3297V21.4286M13.1263 21.4286H0M13.1263 21.4286V22.5275M13.1263 22.5275H1.16162" stroke="#141414" stroke-width="0.5"/>
</g>
<defs>
<clipPath id="clip0_59_183">
<rect width="46" height="40" fill="white"/>
</clipPath>
</defs>
</svg>
