<svg width="198" height="182" viewBox="0 0 198 182" fill="none" xmlns="http://www.w3.org/2000/svg">
<path d="M197 49L185.5 51.5L122.5 15.5L64 51.5V106L116 134.5C116 134.5 120 134.5 122.5 129.5C125 124.5 118.5 120.5 118.5 120.5L79 98V54H91V87.5C91 87.5 129 104 132 110C135 116 132 139.5 132 139.5L99.5 154.5L118.5 167L175.5 132.5V83L122.5 49L114.5 61.5C114.5 61.5 156.5 83 160.5 90.5C164.5 98 162 126 162 126L146.812 134.069C148.028 128.27 152.116 106.548 146.5 100.5C140 93.5 104.5 76.5 104.5 76.5C104.5 76.5 98 53.5 102.5 45C107 36.5 127.5 36.5 127.5 36.5L184.5 62V97.5C184.5 97.5 182 122.5 189.5 129L197 134.5V49Z" fill="#E0E0E0"/>
<path d="M197 49L120.242 2.14783L45.5 45V53.5H56.5V57V62V66.5V72V76.5V82V87V92.5V97.5V102.5V107.5V111.5H45.5V123.5V135.5L82.5 157.75L119.5 180L197 134.5L189.5 129C182 122.5 184.5 97.5 184.5 97.5V62L127.5 36.5C127.5 36.5 107 36.5 102.5 45C98 53.5 104.5 76.5 104.5 76.5C104.5 76.5 140 93.5 146.5 100.5C152.116 106.548 148.028 128.27 146.812 134.069L162 126C162 126 164.5 98 160.5 90.5C156.5 83 114.5 61.5 114.5 61.5L122.5 49L175.5 83V132.5L118.5 167L99.5 154.5L132 139.5C132 139.5 135 116 132 110C129 104 91 87.5 91 87.5V54H79V98L118.5 120.5C118.5 120.5 125 124.5 122.5 129.5C120 134.5 116 134.5 116 134.5L64 106V51.5L122.5 15.5L185.5 51.5L197 49Z" fill="#141414"/>
<path d="M119.407 2.62676L120.242 2.14783M120.242 2.14783L197 49M120.242 2.14783L119.628 2.5M120.242 2.14783L45.5 45V53.5H56.5V57M197 49L185.5 51.5L122.5 15.5L64 51.5V106L116 134.5C116 134.5 120 134.5 122.5 129.5C125 124.5 118.5 120.5 118.5 120.5L79 98V54H91V87.5C91 87.5 129 104 132 110C135 116 132 139.5 132 139.5L99.5 154.5L118.5 167L175.5 132.5V83L122.5 49L114.5 61.5C114.5 61.5 156.5 83 160.5 90.5C164.5 98 162 126 162 126L146.812 134.069M197 49V134.5M146.812 134.069L145 134.5M146.812 134.069C148.028 128.27 152.116 106.548 146.5 100.5C140 93.5 104.5 76.5 104.5 76.5C104.5 76.5 98 53.5 102.5 45C107 36.5 127.5 36.5 127.5 36.5L184.5 62V97.5C184.5 97.5 182 122.5 189.5 129L197 134.5M146.812 134.069C146.62 134.982 145.5 135.5 145.5 135.5M197 134.5L119.5 180L82.5 157.75L45.5 135.5V123.5V111.5H56.5V107.5M56.5 57H43M56.5 57V62M56.5 62H31.5M56.5 62V66.5M56.5 66.5H13M56.5 66.5V72M56.5 72H7M56.5 72V76.5M56.5 76.5H5M56.5 76.5V82M56.5 82H9.5M56.5 82V87M56.5 87H7M56.5 87V92.5M56.5 92.5H13M56.5 92.5V97.5M56.5 97.5H0M56.5 97.5V102.5M56.5 102.5H5M56.5 102.5V107.5M56.5 107.5H17" stroke="#141414" stroke-width="2"/>
</svg>
